<svg xmlns="http://www.w3.org/2000/svg" width="44" height="39" viewBox="0 0 44 39"><defs><linearGradient id="5ufaa" x1="2.5" x2="61.29" y1="-22.83" y2="-22.83" gradientUnits="userSpaceOnUse"><stop offset="0" stop-color="#fdcac0"/><stop offset="1" stop-color="#b3867c"/></linearGradient></defs><g><g transform="rotate(90 22 19.5)"><path fill="url(#5ufaa)" d="M35.422 9.579a1.254 1.254 0 0 0-.189 1.762 16.797 16.797 0 0 1 3.759 10.66c0 9.37-7.623 16.991-16.993 16.991-9.37 0-16.992-7.621-16.992-16.99 0-6.52 3.792-12.343 9.377-15.17 2.06-1.042 3.478.41 2.928 2.652l-1.054 4.296a1.253 1.253 0 1 0 2.435.597l2.772-11.281a1.253 1.253 0 0 0-.808-1.484L8.96-2.43a1.25 1.25 0 0 0-.958.057c-.49.238-.817 1.187-.58 1.677.14.289.392.524.718.637l5.166 1.785c2.182.753 2.104 1.784.04 2.816C6.887 7.771 2.5 14.487 2.5 22.001 2.5 32.754 11.247 41.5 22 41.5c10.752 0 19.5-8.747 19.5-19.498a19.55 19.55 0 0 0-4.314-12.235 1.255 1.255 0 0 0-1.764-.188z"/></g></g></svg>