<svg xmlns="http://www.w3.org/2000/svg" width="13" height="24" viewBox="0 0 13 24"><g><g><path fill="#d1e5e4" d="M7.734 9.84h3.389l-.469 2.81h-2.92a.703.703 0 0 0-.703.704v9.23H4.22v-9.23a.703.703 0 0 0-.703-.703h-2.11V9.84h2.11a.703.703 0 0 0 .703-.703V4.92a3.52 3.52 0 0 1 3.515-3.514h3.516v2.811H7.734a.703.703 0 0 0-.703.703v4.217c0 .388.315.703.703.703zm4.22-4.215a.703.703 0 0 0 .702-.703V.703A.703.703 0 0 0 11.953 0H7.734a4.927 4.927 0 0 0-4.921 4.922v3.516H.703A.703.703 0 0 0 0 9.14v4.218c0 .389.315.704.703.704h2.11v9.234c0 .388.314.703.703.703h4.218a.703.703 0 0 0 .703-.703v-9.234h2.813a.704.704 0 0 0 .694-.588l.703-4.219a.705.705 0 0 0-.694-.818H8.438V5.625z"/></g></g></svg>