<svg xmlns="http://www.w3.org/2000/svg" width="24" height="24" viewBox="0 0 24 24"><g><g><path fill="#2f2d2d" d="M17.515 22.061H6.485a4.55 4.55 0 0 1-4.546-4.546V6.485a4.55 4.55 0 0 1 4.546-4.546h11.03a4.55 4.55 0 0 1 4.546 4.546v11.03a4.55 4.55 0 0 1-4.546 4.546zm0-22.061H6.485A6.492 6.492 0 0 0 0 6.485v11.03A6.492 6.492 0 0 0 6.485 24h11.03A6.492 6.492 0 0 0 24 17.515V6.485A6.492 6.492 0 0 0 17.515 0z"/></g><g><path fill="#2f2d2d" d="M12.548 15.355a3.42 3.42 0 0 1-2.556-.64 3.418 3.418 0 0 1-1.355-2.258 3.417 3.417 0 0 1 .64-2.555 3.42 3.42 0 0 1 2.766-1.391 3.422 3.422 0 0 1 3.406 2.936 3.445 3.445 0 0 1-2.901 3.908zm4.818-4.193a5.344 5.344 0 0 0-1.518-3.016 5.378 5.378 0 0 0-4.595-1.518A5.346 5.346 0 0 0 7.72 8.746a5.346 5.346 0 0 0-1 3.995 5.347 5.347 0 0 0 2.117 3.533 5.341 5.341 0 0 0 3.995 1.001 5.346 5.346 0 0 0 3.533-2.117 5.346 5.346 0 0 0 1.001-3.996z"/></g><g><path fill="#2f2d2d" d="M18.755 5.244a.976.976 0 0 0-.685-.284.976.976 0 0 0-.686.284.976.976 0 0 0-.284.686c0 .255.103.505.284.685.18.18.43.284.686.284a.976.976 0 0 0 .685-.284c.18-.18.284-.43.284-.685a.976.976 0 0 0-.284-.686z"/></g></g></svg>