<svg xmlns="http://www.w3.org/2000/svg" width="24" height="16" viewBox="0 0 24 16"><g><g><path fill="#d1e5e4" d="M2.188 14.5c-.17 0-.368-.114-.596-.342-.228-.228-.342-.426-.342-.595V2.617l10.34 6.66c.065.052.13.091.195.118.065.026.137.039.215.039.078 0 .15-.013.215-.04a.777.777 0 0 0 .195-.117l10.34-6.66v10.946c0 .169-.01.367-.03.595-.019.228-.113.342-.282.342zm20.25-13.25L12 7.988 1.582 1.27c.104-.013.208-.02.313-.02zm1.552-.03a.489.489 0 0 0-.049-.165c-.078-.352-.244-.616-.498-.791C23.19.088 22.854 0 22.438 0H2.188a3.07 3.07 0 0 0-1.104.205C.726.342.449.54.254.801A.147.147 0 0 0 .195.85a.32.32 0 0 1-.039.048.706.706 0 0 0-.136.245.455.455 0 0 0 0 .263.173.173 0 0 0-.02.078v12.079c0 .52.234 1.015.703 1.484.469.469.964.703 1.485.703h20.25c.52 0 .911-.234 1.171-.703s.391-.964.391-1.485V1.485a.173.173 0 0 0-.02-.078.604.604 0 0 0 .01-.185z"/></g></g></svg>