<svg xmlns="http://www.w3.org/2000/svg" width="12" height="17" viewBox="0 0 12 17"><g><g><path fill="#d1e5e4" d="M5.82 0a5.74 5.74 0 0 1 2.94.78 5.87 5.87 0 0 1 2.1 2.1c.52.893.78 1.873.78 2.94 0 .813-.2 1.747-.6 2.8-.347.893-.827 1.86-1.44 2.9a38.256 38.256 0 0 1-1.74 2.58c-.453.627-.933 1.24-1.44 1.84l-.6.7-.6-.7c-.507-.6-.987-1.213-1.44-1.84a38.256 38.256 0 0 1-1.74-2.58C1.427 10.48.947 9.513.6 8.62.2 7.567 0 6.633 0 5.82c0-1.067.26-2.047.78-2.94a5.87 5.87 0 0 1 2.1-2.1A5.74 5.74 0 0 1 5.82 0zm0 7.88c.373 0 .72-.093 1.04-.28.32-.187.573-.437.76-.75.187-.313.28-.657.28-1.03s-.093-.72-.28-1.04a2.078 2.078 0 0 0-.76-.76 2.028 2.028 0 0 0-1.04-.28c-.373 0-.717.093-1.03.28-.313.187-.563.44-.75.76-.187.32-.28.667-.28 1.04 0 .573.2 1.06.6 1.46.4.4.887.6 1.46.6z"/></g></g></svg>