<svg width="10" height="13" viewBox="0 0 10 13">
    <path d="M4.297 5.704A.964.964 0 0 1 4 4.996c0-.275.098-.51.293-.704A.965.965 0 0 1 5 4c.276 0 .512.097.707.292.195.194.293.43.293.704a.977.977 0 0 1-.29.708.946.946 0 0 1-.702.296.972.972 0 0 1-.711-.296zM3.589 3.59A1.925 1.925 0 0 0 3 5c0 .556.196 1.028.589 1.417C3.98 6.806 4.45 7 5 7c.556 0 1.028-.194 1.417-.583C6.806 6.027 7 5.556 7 5c0-.549-.194-1.02-.583-1.411A1.92 1.92 0 0 0 5 3c-.549 0-1.02.196-1.411.589zm1.592 8.386A.204.204 0 0 0 5.15 12l-.05-.05-.212-.233c-.409-.467-.842-.969-1.3-1.505A17.316 17.316 0 0 1 2.325 8.54c-.383-.577-.7-1.165-.95-1.763A4.565 4.565 0 0 1 1 5.007c0-.541.108-1.055.325-1.543.217-.487.508-.913.875-1.278a4.142 4.142 0 0 1 1.288-.866A3.888 3.888 0 0 1 5.05 1c.683 0 1.273.115 1.769.344.496.23.906.533 1.231.91.325.377.565.805.719 1.284.154.48.231.969.231 1.469 0 .442-.08.92-.237 1.432a8.908 8.908 0 0 1-.713 1.634 16.74 16.74 0 0 1-1.188 1.838A28.345 28.345 0 0 1 5.2 11.95c0 .008-.006.016-.019.024zM3.105.394A5.148 5.148 0 0 0 .403 3.047C.136 3.647 0 4.283 0 4.95c0 .703.15 1.405.45 2.108.299.702.672 1.385 1.119 2.05.447.664.933 1.297 1.458 1.898.526.6 1.014 1.155 1.465 1.663 0 .008.063.066.189.171.126.106.28.159.462.159h.04a.701.701 0 0 0 .455-.159c.13-.105.195-.163.195-.171.426-.474.881-1.016 1.368-1.625.486-.61.937-1.255 1.354-1.936.416-.681.761-1.375 1.035-2.082.273-.707.41-1.399.41-2.076 0-.668-.11-1.303-.332-1.904a4.66 4.66 0 0 0-.964-1.58A4.497 4.497 0 0 0 7.148.393C6.532.13 5.833 0 5.052 0c-.686 0-1.335.131-1.947.394z" />
</svg>