<svg xmlns="http://www.w3.org/2000/svg" width="24" height="24" viewBox="0 0 24 24"><g><g><path fill="#d1e5e4" d="M4.788 2.26a.637.637 0 0 1 .176-.024h.047c.453.656.925 1.36 1.418 2.11.492.75 1.011 1.554 1.558 2.414a.742.742 0 0 1-.035.21 1.636 1.636 0 0 1-.105.258l-.399.715c-.187.336-.43.778-.726 1.325l-.47.82.563.726c.344.5.782 1.051 1.313 1.653a53.68 53.68 0 0 0 1.851 1.98 50.471 50.471 0 0 0 1.98 1.887c.602.539 1.153.98 1.653 1.324l.774.516.773-.469 1.336-.727c.344-.187.578-.32.703-.398.094-.047.18-.082.258-.105a.742.742 0 0 1 .21-.036c.61.391 1.294.836 2.052 1.336.757.5 1.59 1.07 2.496 1.711a.253.253 0 0 1 0 .153.555.555 0 0 1-.094.175c-.234.313-.477.621-.727.926-.25.305-.515.598-.796.88-.282.28-.524.507-.727.679-.203.172-.36.281-.469.328-.703-.047-1.457-.219-2.261-.516-.805-.297-1.657-.726-2.555-1.289a26.043 26.043 0 0 1-2.836-2.086 47.612 47.612 0 0 1-3.129-2.883 47.612 47.612 0 0 1-2.883-3.128 26.04 26.04 0 0 1-2.086-2.836C3.09 8.99 2.66 8.143 2.362 7.346c-.297-.797-.46-1.547-.492-2.25.047-.141.152-.313.316-.516a9.62 9.62 0 0 1 .668-.727c.282-.28.57-.55.868-.808.296-.258.601-.496.914-.715a.54.54 0 0 1 .152-.07zM5.632.959A1.643 1.643 0 0 0 4.964.83c-.219 0-.422.027-.61.082a1.745 1.745 0 0 0-.539.27c-.125.093-.273.203-.445.328s-.352.257-.54.398c-.202.156-.429.356-.679.598-.25.242-.531.535-.844.879a5.464 5.464 0 0 0-.703.925c-.156.274-.234.52-.234.739.031.797.203 1.644.516 2.543.312.898.77 1.84 1.37 2.824a27.88 27.88 0 0 0 2.227 3.094 46.29 46.29 0 0 0 3.082 3.375 51.958 51.958 0 0 0 3.375 3.07c1.078.89 2.11 1.633 3.094 2.227.984.593 1.922 1.05 2.813 1.37.89.321 1.742.497 2.554.528h.047c.203 0 .442-.078.715-.234.273-.157.574-.391.902-.704.344-.312.64-.597.89-.855s.454-.488.61-.691c.172-.204.32-.383.446-.54a3.26 3.26 0 0 0 .28-.398 2.41 2.41 0 0 0 .329-.691 1.97 1.97 0 0 0 .07-.668 1.707 1.707 0 0 0-.187-.563 1.22 1.22 0 0 0-.375-.422c-.89-.625-1.727-1.199-2.508-1.722a53.097 53.097 0 0 0-2.227-1.418 1.421 1.421 0 0 0-.726-.188c-.172 0-.356.028-.55.082a2.448 2.448 0 0 0-.575.246c-.156.078-.41.215-.762.41-.351.196-.793.45-1.324.762a20.03 20.03 0 0 1-1.535-1.254c-.57-.507-1.2-1.105-1.887-1.793a40.21 40.21 0 0 1-1.77-1.875 18.564 18.564 0 0 1-1.253-1.57c.296-.547.539-.992.726-1.336.188-.344.32-.594.399-.75.203-.36.316-.695.34-1.008a1.359 1.359 0 0 0-.2-.843c-.61-.954-1.176-1.82-1.699-2.602a79.11 79.11 0 0 0-1.441-2.086 1.263 1.263 0 0 0-.504-.41z"/></g></g></svg>