<svg xmlns="http://www.w3.org/2000/svg" width="32" height="28" viewBox="0 0 32 28"><g><g><path d="M26.598 21.463a1.026 1.026 0 0 0-1.426.193 9.11 9.11 0 0 1-.2.25c-1.021 1.235-2.396 2.237-4.092 2.981a.83.83 0 0 0-.025.012c-2.677 1.262-5.808 1.434-8.812.487-2.637-.848-4.783-2.49-6.377-4.881-1.185-1.876-1.806-3.916-1.85-6.067l-.001-.157h1.248a.52.52 0 0 0 .372-.888l-2.267-2.24a.531.531 0 0 0-.745 0l-2.268 2.24a.52.52 0 0 0 .373.888h1.25c.016 2.595.745 5.05 2.168 7.3l.013.02c1.856 2.786 4.364 4.703 7.46 5.699 1.483.468 2.995.7 4.484.7 2.024 0 4.005-.43 5.816-1.28 2.12-.934 3.828-2.229 5.074-3.848a.997.997 0 0 0-.195-1.409z"/></g><g><path d="M31.473 14.566h-1.247a14.973 14.973 0 0 0-1.915-7.34 14.503 14.503 0 0 0-4.375-4.8 13.773 13.773 0 0 0-6.068-2.32c-2.398-.3-4.837.04-7.053.986a14.182 14.182 0 0 0-5.589 4.322 1.078 1.078 0 0 0 .15 1.48.992.992 0 0 0 1.429-.157 12.118 12.118 0 0 1 4.784-3.7 11.696 11.696 0 0 1 6.035-.842c1.845.231 3.639.917 5.189 1.984a12.417 12.417 0 0 1 3.745 4.109 12.803 12.803 0 0 1 1.637 6.278h-1.247c-.469 0-.703.587-.372.93l2.263 2.344a.513.513 0 0 0 .743 0l2.263-2.344c.331-.343.097-.93-.372-.93z"/></g></g></svg>