<svg xmlns="http://www.w3.org/2000/svg" width="18" height="13" viewBox="0 0 18 13"><g><g><path fill="#2f2d2d" d="M1.683 3.797C.101 6.218-.895 10.07 1.156 12.05c1.347 1.265 3.515 1.265 4.862 0 1.348-1.266 1.29-3.302-.058-4.567-.703-.606-1.524-.826-2.344-.936C2.68 6.383 2.386 3.081 6.311.44L5.901 0C3.382 1.266 2.386 2.696 1.683 3.797zm11 0c-1.582 2.421-2.578 6.273-.527 8.254 1.347 1.265 3.515 1.265 4.862 0 1.348-1.266 1.29-3.302-.058-4.567-.703-.606-1.524-.826-2.285-.936-.996-.165-1.289-3.467 2.636-6.108L16.96 0c-2.578 1.266-3.574 2.696-4.277 3.797z"/></g></g></svg>